<svg width="0" height="0" class="hidden">
  <symbol xmlns="http://www.w3.org/2000/svg" viewBox="0 0 45 37" id="registration">
    <path fill-rule="evenodd" clip-rule="evenodd" d="M22 8.5a4.5 4.5 0 11-9 0 4.5 4.5 0 019 0zm4 0a8.5 8.5 0 11-17 0 8.5 8.5 0 0117 0zM10 22C4.477 22 0 26.477 0 32v2.5a2 2 0 104 0V32a6 6 0 016-6h14a6 6 0 016 6v2.5a2 2 0 104 0V32c0-5.523-4.477-10-10-10H10zm23 2a2 2 0 012-2 9.5 9.5 0 019.5 9.5v3a2 2 0 11-4 0v-3A5.5 5.5 0 0035 26a2 2 0 01-2-2zM28 0a2 2 0 100 4c2.061 0 4 1.861 4 4.5 0 2.639-1.939 4.5-4 4.5a2 2 0 100 4c4.566 0 8-3.96 8-8.5S32.566 0 28 0z"></path>
  </symbol>
  <symbol xmlns="http://www.w3.org/2000/svg" viewBox="0 0 22 22" id="done">
    <path fill-rule="evenodd" clip-rule="evenodd" d="M11 20a9 9 0 008.665-11.443l1.509-1.747C21.706 8.1 22 9.516 22 11c0 6.075-4.925 11-11 11S0 17.075 0 11 4.925 0 11 0c2.375 0 4.574.753 6.372 2.032l-1.315 1.522A9 9 0 1011 20zm.757-5.346l9.5-11-1.514-1.308-8.754 10.137-3.242-3.647-1.494 1.328 4 4.5.758.853.746-.863z"></path>
  </symbol>
  <symbol xmlns="http://www.w3.org/2000/svg" viewBox="0 0 22 23" id="edit">
    <path fill-rule="evenodd" clip-rule="evenodd" d="M9.759 10.404l7.917-7.917c.024-.01.117-.035.33.019.308.077.714.294 1.096.676.382.382.6.788.676 1.096.054.213.029.306.019.33l-7.917 7.917-2.758.636.637-2.757zm3.333 3.738l8.131-8.132c.64-.638.669-1.524.496-2.217-.18-.716-.609-1.43-1.203-2.025-.594-.595-1.31-1.024-2.025-1.203-.693-.173-1.578-.143-2.217.496L8.142 9.192l-.203.203-.064.28-1.061 4.596-.36 1.559 1.56-.36 4.595-1.06.28-.065.203-.203zM1 2.5H0V23h19.5V12.5h-2V21H2V4.5h8.5v-2H1z"></path>
  </symbol>
  <symbol xmlns="http://www.w3.org/2000/svg" viewBox="0 0 18 19" id="search">
    <path fill-rule="evenodd" clip-rule="evenodd" d="M14 8A6 6 0 112 8a6 6 0 0112 0zm-1.381 6.533a8 8 0 111.477-1.351l3.611 3.61-1.414 1.415-3.674-3.674z"></path>
  </symbol>
  <symbol xmlns="http://www.w3.org/2000/svg" viewBox="0 0 34 37" id="worker">
    <path fill-rule="evenodd" clip-rule="evenodd" d="M22 8.5a4.5 4.5 0 11-9 0 4.5 4.5 0 019 0zm4 0a8.5 8.5 0 11-17 0 8.5 8.5 0 0117 0zM10 22C4.477 22 0 26.477 0 32v2.5a2 2 0 104 0V32a6 6 0 016-6h14a6 6 0 016 6v2.5a2 2 0 104 0V32c0-5.523-4.477-10-10-10H10z"></path>
  </symbol>
  <symbol xmlns="http://www.w3.org/2000/svg" viewBox="0 0 31 31" id="sms">
    <path fill-rule="evenodd" clip-rule="evenodd" d="M29 15.5C29 22.956 22.956 29 15.5 29S2 22.956 2 15.5 8.044 2 15.5 2 29 8.044 29 15.5zm2 0C31 24.06 24.06 31 15.5 31 6.94 31 0 24.06 0 15.5 0 6.94 6.94 0 15.5 0 24.06 0 31 6.94 31 15.5zm-16.5 1.492c-.195.54-.3 1.274-.316 2.203h2.168c0-1.187.285-2.097.855-2.73l1.277-1.266c1.266-1.328 1.899-2.676 1.899-4.043 0-1.383-.414-2.469-1.242-3.258-.82-.796-1.97-1.195-3.446-1.195-1.422 0-2.578.39-3.468 1.172-.883.773-1.332 1.793-1.348 3.059h2.168c0-.711.242-1.278.726-1.7.485-.421 1.125-.632 1.922-.632.82 0 1.446.234 1.875.703.43.46.645 1.101.645 1.922 0 .851-.328 1.648-.985 2.39L15.695 15.2c-.601.656-1 1.254-1.195 1.793zm-.094 5.04c-.21.234-.316.527-.316.878 0 .352.105.645.316.88.219.226.54.339.961.339.422 0 .742-.113.961-.34.219-.234.328-.527.328-.879 0-.351-.11-.644-.328-.879-.219-.242-.539-.363-.96-.363-.423 0-.743.121-.962.363z"></path>
  </symbol>
   <symbol xmlns="http://www.w3.org/2000/svg" viewBox="0 0 22 22" id="trash">
    <path fill-rule="evenodd" clip-rule="evenodd" d="M7 0H6v3.243H0v2h2V22h18V5.243h2v-2h-6V0H7zm7 3.243H8V2h6v1.243zM4 20V5.243h14V20H4zm2-10v6.5h2V10H6zm4 0v6.5h2V10h-2zm4 6.5V10h2v6.5h-2z"></path>
  </symbol>
</svg>